<svg xmlns="http://www.w3.org/2000/svg" xmlns:xlink="http://www.w3.org/1999/xlink" xmlns:lucid="lucid" width="1620" height="956.67"><g transform="translate(0 0)" lucid:page-tab-id="0_0"><path d="M0 0h1666v954H0z" fill="#fff"/><path d="M400 402.67a6 6 0 0 1 6-6h328a6 6 0 0 1 6 6v108a6 6 0 0 1-6 6H406a6 6 0 0 1-6-6z" stroke="#3a414a" stroke-width="4" fill="#fff"/><use xlink:href="#a" transform="matrix(1,0,0,1,412,408.6666666666668) translate(47.98209635416673 39.734374999999986)"/><use xlink:href="#b" transform="matrix(1,0,0,1,412,408.6666666666668) translate(97.99023437500003 74.87434895833331)"/><path d="M400 702.67a6 6 0 0 1 6-6h328a6 6 0 0 1 6 6v88a6 6 0 0 1-6 6H406a6 6 0 0 1-6-6z" stroke="#3a414a" stroke-width="4" fill="#fff"/><use xlink:href="#c" transform="matrix(1,0,0,1,412,708.6666666666667) translate(67.98535156250004 49.109374999999986)"/><path d="M595.33 606.67c0 11.96-11.34 21.66-25.33 21.66-14 0-25.33-9.7-25.33-21.66C544.67 594.7 556 585 570 585c14 0 25.33 9.7 25.33 21.67zm-50.66 0h50.66M570 585v43.33" stroke="#3a414a" stroke-width="4" fill="#fff"/><path d="M570 692.67v-39.6" stroke="#3a414a" stroke-width="4" fill="none"/><path d="M572 694.67h-4v-2.05h4z" stroke="#3a414a" stroke-width=".05" fill="#3a414a"/><path d="M570 636.8l4.63 14.28h-9.26z" stroke="#3a414a" stroke-width="4" fill="#3a414a"/><path d="M570 581V541.4" stroke="#3a414a" stroke-width="4" fill="none"/><path d="M572 583.2l-2-.2-2 .18v-2.24h4z" stroke="#3a414a" stroke-width=".05" fill="#3a414a"/><path d="M570 525.14l4.63 14.27h-9.26z" stroke="#3a414a" stroke-width="4" fill="#3a414a"/><path d="M20 562.67a6 6 0 0 1 6-6h328a6 6 0 0 1 6 6v88a6 6 0 0 1-6 6H26a6 6 0 0 1-6-6z" stroke="#3a414a" stroke-width="4" fill="#fff"/><use xlink:href="#d" transform="matrix(1,0,0,1,32,568.6666666666667) translate(57.983723958333385 30.10937499999999)"/><use xlink:href="#e" transform="matrix(1,0,0,1,32,568.6666666666667) translate(77.9869791666667 65.24934895833331)"/><path d="M364 606.67h155.92" stroke="#3a414a" stroke-width="4" fill="none"/><path d="M364.05 608.67H362v-4h2.05z" stroke="#3a414a" stroke-width=".05" fill="#3a414a"/><path d="M536.2 606.67l-14.28 4.63v-9.27z" stroke="#3a414a" stroke-width="4" fill="#3a414a"/><path d="M400 214.33a6 6 0 0 1 6-6h328a6 6 0 0 1 6 6v108a6 6 0 0 1-6 6H406a6 6 0 0 1-6-6z" stroke="#3a414a" stroke-width="4" fill="#fff"/><use xlink:href="#f" transform="matrix(1,0,0,1,412,220.33333333333343) translate(97.99023437500003 57.734374999999986)"/><path d="M570 392.67v-39.6" stroke="#3a414a" stroke-width="4" fill="none"/><path d="M572 394.67h-4v-2.06h4z" stroke="#3a414a" stroke-width=".05" fill="#3a414a"/><path d="M570 336.8l4.63 14.27h-9.26z" stroke="#3a414a" stroke-width="4" fill="#3a414a"/><path d="M400 26a6 6 0 0 1 6-6h328a6 6 0 0 1 6 6v108a6 6 0 0 1-6 6H406a6 6 0 0 1-6-6z" stroke="#3a414a" stroke-width="4" fill="#fff"/><use xlink:href="#g" transform="matrix(1,0,0,1,412,32) translate(87.98860677083336 57.734374999999986)"/><path d="M570 204.33v-39.6" stroke="#3a414a" stroke-width="4" fill="none"/><path d="M572 206.33h-4v-2.05h4z" stroke="#3a414a" stroke-width=".05" fill="#3a414a"/><path d="M570 148.47l4.63 14.27h-9.26z" stroke="#3a414a" stroke-width="4" fill="#3a414a"/><path d="M450 882.67a6 6 0 0 1 6-6h228a6 6 0 0 1 6 6v48a6 6 0 0 1-6 6H456a6 6 0 0 1-6-6z" stroke="#000" stroke-opacity="0" stroke-width="4" fill="#fff" fill-opacity="0"/><use xlink:href="#h" transform="matrix(1,0,0,1,455,881.6666666666667) translate(54.99023437500002 33.984374999999986)"/><path d="M570 874.67V821.4" stroke="#3a414a" stroke-width="4" fill="none"/><path d="M572 876.67h-4v-2.05h4z" stroke="#3a414a" stroke-width=".05" fill="#3a414a"/><path d="M570 805.14l4.63 14.26h-9.26z" stroke="#3a414a" stroke-width="4" fill="#3a414a"/><path d="M1260 262.67a6 6 0 0 1 6-6h328a6 6 0 0 1 6 6v108a6 6 0 0 1-6 6h-328a6 6 0 0 1-6-6z" stroke="#3a414a" stroke-width="4" fill="#fff"/><use xlink:href="#a" transform="matrix(1,0,0,1,1272,268.6666666666668) translate(47.98209635416673 39.734374999999986)"/><use xlink:href="#b" transform="matrix(1,0,0,1,1272,268.6666666666668) translate(97.99023437500003 74.87434895833331)"/><path d="M1260 562.67a6 6 0 0 1 6-6h328a6 6 0 0 1 6 6v88a6 6 0 0 1-6 6h-328a6 6 0 0 1-6-6z" stroke="#3a414a" stroke-width="4" fill="#fff"/><use xlink:href="#i" transform="matrix(1,0,0,1,1272,568.6666666666667) translate(57.983723958333385 49.109374999999986)"/><path d="M1455.33 466.67c0 11.96-11.34 21.66-25.33 21.66-14 0-25.33-9.7-25.33-21.66 0-11.97 11.34-21.67 25.33-21.67 14 0 25.33 9.7 25.33 21.67zm-50.66 0h50.66M1430 445v43.33" stroke="#3a414a" stroke-width="4" fill="#fff"/><path d="M1430 552.67v-39.6" stroke="#3a414a" stroke-width="4" fill="none"/><path d="M1432 554.67h-4v-2.05h4z" stroke="#3a414a" stroke-width=".05" fill="#3a414a"/><path d="M1430 496.8l4.63 14.28h-9.27z" stroke="#3a414a" stroke-width="4" fill="#3a414a"/><path d="M1430 441V401.4" stroke="#3a414a" stroke-width="4" fill="none"/><path d="M1432 443.2l-2-.2-2 .18v-2.24h4z" stroke="#3a414a" stroke-width=".05" fill="#3a414a"/><path d="M1430 385.14l4.63 14.27h-9.27z" stroke="#3a414a" stroke-width="4" fill="#3a414a"/><path d="M880 422.67a6 6 0 0 1 6-6h328a6 6 0 0 1 6 6v88a6 6 0 0 1-6 6H886a6 6 0 0 1-6-6z" stroke="#3a414a" stroke-width="4" fill="#fff"/><use xlink:href="#d" transform="matrix(1,0,0,1,892,428.6666666666668) translate(57.983723958333385 30.10937499999999)"/><use xlink:href="#e" transform="matrix(1,0,0,1,892,428.6666666666668) translate(77.9869791666667 65.24934895833331)"/><path d="M1224 466.67h155.93" stroke="#3a414a" stroke-width="4" fill="none"/><path d="M1224.05 468.67H1222v-4h2.05z" stroke="#3a414a" stroke-width=".05" fill="#3a414a"/><path d="M1396.18 466.67l-14.26 4.63v-9.27z" stroke="#3a414a" stroke-width="4" fill="#3a414a"/><path d="M1260 74.33a6 6 0 0 1 6-6h328a6 6 0 0 1 6 6v108a6 6 0 0 1-6 6h-328a6 6 0 0 1-6-6z" stroke="#3a414a" stroke-width="4" fill="#fff"/><use xlink:href="#j" transform="matrix(1,0,0,1,1272,80.33333333333331) translate(47.98209635416673 39.734374999999986)"/><use xlink:href="#k" transform="matrix(1,0,0,1,1272,80.33333333333331) translate(27.97884114583337 74.87434895833331)"/><use xlink:href="#l" transform="matrix(1,0,0,1,1272,80.33333333333331) translate(188.00488281249997 74.87434895833331)"/><path d="M1430 252.67v-39.6" stroke="#3a414a" stroke-width="4" fill="none"/><path d="M1432 254.67h-4v-2.05h4z" stroke="#3a414a" stroke-width=".05" fill="#3a414a"/><path d="M1430 196.8l4.63 14.27h-9.27z" stroke="#3a414a" stroke-width="4" fill="#3a414a"/><path d="M1310 742.67a6 6 0 0 1 6-6h228a6 6 0 0 1 6 6v48a6 6 0 0 1-6 6h-228a6 6 0 0 1-6-6z" stroke="#000" stroke-opacity="0" stroke-width="4" fill="#fff" fill-opacity="0"/><g><use xlink:href="#h" transform="matrix(1,0,0,1,1315,741.6666666666667) translate(54.99023437500002 33.984374999999986)"/></g><path d="M1430 734.67V681.4" stroke="#3a414a" stroke-width="4" fill="none"/><path d="M1432 736.67h-4v-2.05h4z" stroke="#3a414a" stroke-width=".05" fill="#3a414a"/><path d="M1430 665.14l4.63 14.26h-9.27z" stroke="#3a414a" stroke-width="4" fill="#3a414a"/><defs><path fill="#3a414a" d="M709-1193V0H519v-1193H76v-156h1076v156H709" id="m"/><path fill="#3a414a" d="M839-1102c70 0 148 7 206 17v167c-112-18-268-36-363 15-129 69-208 203-208 395V0H294c-10-367 32-789-52-1082h171c21 75 41 161 48 250h5c67-152 152-270 373-270" id="n"/><path fill="#3a414a" d="M1000-272c3 95 12 159 101 161 21 0 41-3 59-7V-6c-44 10-86 16-139 16-141 2-191-84-197-217h-6C748-76 648 20 446 20c-207 0-318-120-318-322 0-266 194-348 454-354l236-4c12-191-40-305-222-305-140 0-220 47-232 172l-188-17c33-204 181-292 423-292 255 0 401 118 401 364v466zm-683-27c0 109 63 184 175 182 166-3 259-96 306-217 24-65 20-120 20-200-232 7-501-28-501 235" id="o"/><path fill="#3a414a" d="M706-1102c241 0 344 136 343 381V0H868v-695c1-168-57-273-220-268-190 6-283 138-283 336V0H185c-3-360 6-732-6-1082h170c4 54 7 126 8 185h3c63-121 164-204 346-205" id="p"/><path fill="#3a414a" d="M873-819c-18-114-119-146-250-146-163 0-245 50-245 151 0 151 170 148 294 185 182 54 388 94 388 320 0 240-189 325-439 329-245 4-410-69-454-268l159-31c24 133 136 168 295 165 144-2 270-31 270-171 0-164-195-160-331-202-167-52-350-87-350-299 0-218 173-315 413-313 220 2 373 77 412 260" id="q"/><path fill="#3a414a" d="M839-1335c-182-6-269 67-259 253h491v142H580V0H400v-940H138v-142h262c-15-293 132-408 418-402 94 2 200 7 281 21v145c-75-10-177-14-260-17" id="r"/><path fill="#3a414a" d="M615-1102c343 0 484 203 482 560-1 347-147 562-488 562-336 0-475-219-479-562-4-349 156-560 485-560zm-8 989c240 0 301-180 301-429 0-245-55-427-290-427-236 0-299 181-299 427 0 243 61 429 288 429" id="s"/><path fill="#3a414a" d="M904-1102c199 0 220 177 220 381V0H956v-686c-3-114 0-215-60-264-70-33-125-4-158 71-26 56-39 140-39 252V0H531v-686c-3-114-1-215-61-264-78-41-136 24-157 84-24 69-39 159-39 259V0H105c-3-360 6-732-6-1082h149c6 50 3 123 8 175 36-100 83-195 216-195 135 0 166 79 196 196 42-105 93-196 236-196" id="t"/><path fill="#3a414a" d="M617-1102c355 0 481 238 477 599H322c5 222 84 388 301 388 144 0 244-59 284-166l158 45C1002-72 854 20 623 20c-342 0-490-220-490-568 0-346 151-554 484-554zm291 461c-18-192-90-328-289-328-194 0-287 128-295 328h584" id="u"/><g id="a"><use transform="matrix(0.01627604166666666,0,0,0.01627604166666666,0,0)" xlink:href="#m"/><use transform="matrix(0.01627604166666666,0,0,0.01627604166666666,20.003255208333325,0)" xlink:href="#n"/><use transform="matrix(0.01627604166666666,0,0,0.01627604166666666,40.00651041666665,0)" xlink:href="#o"/><use transform="matrix(0.01627604166666666,0,0,0.01627604166666666,60.00976562499997,0)" xlink:href="#p"/><use transform="matrix(0.01627604166666666,0,0,0.01627604166666666,80.0130208333333,0)" xlink:href="#q"/><use transform="matrix(0.01627604166666666,0,0,0.01627604166666666,100.01627604166663,0)" xlink:href="#r"/><use transform="matrix(0.01627604166666666,0,0,0.01627604166666666,120.01953124999996,0)" xlink:href="#s"/><use transform="matrix(0.01627604166666666,0,0,0.01627604166666666,140.0227864583333,0)" xlink:href="#n"/><use transform="matrix(0.01627604166666666,0,0,0.01627604166666666,160.0260416666666,0)" xlink:href="#t"/><use transform="matrix(0.01627604166666666,0,0,0.01627604166666666,180.02929687499991,0)" xlink:href="#u"/><use transform="matrix(0.01627604166666666,0,0,0.01627604166666666,200.03255208333323,0)" xlink:href="#n"/></g><path fill="#3a414a" d="M802-711c201 25 350 118 350 331C1152-95 921 0 634 0H162v-1349c401 9 908-74 908 327 0 184-111 275-268 311zm-224-69c174-2 300-51 300-218 0-163-124-198-302-198H353v416h225zM353-153c281-2 612 44 606-244-5-271-329-233-606-234v478" id="v"/><path fill="#3a414a" d="M736-142h380V0H134v-142h422v-1200H267v-142h469v1342" id="w"/><path fill="#3a414a" d="M631 20c-350 0-501-215-501-562 0-355 162-560 502-560 250 0 399 118 446 323l-192 14c-23-124-109-196-262-196-242 0-305 171-305 415 1 245 61 427 304 427 151 0 248-77 267-215l190 12C1039-107 883 20 631 20" id="x"/><path fill="#3a414a" d="M914 0L548-499l-132 98V0H236v-1484h180v927l475-525h211L663-617 1125 0H914" id="y"/><g id="b"><use transform="matrix(0.01627604166666666,0,0,0.01627604166666666,0,0)" xlink:href="#v"/><use transform="matrix(0.01627604166666666,0,0,0.01627604166666666,20.003255208333325,0)" xlink:href="#w"/><use transform="matrix(0.01627604166666666,0,0,0.01627604166666666,40.00651041666665,0)" xlink:href="#s"/><use transform="matrix(0.01627604166666666,0,0,0.01627604166666666,60.00976562499997,0)" xlink:href="#x"/><use transform="matrix(0.01627604166666666,0,0,0.01627604166666666,80.0130208333333,0)" xlink:href="#y"/><use transform="matrix(0.01627604166666666,0,0,0.01627604166666666,100.01627604166663,0)" xlink:href="#q"/></g><path fill="#3a414a" d="M162 0v-1349h919v156H353v422h668v154H353v461h769V0H162" id="z"/><path fill="#3a414a" d="M365-904c58-129 161-200 334-200 130 0 228 46 293 138s98 233 98 420c0 189-34 331-102 425S824 20 698 20c-170 0-275-64-336-184 0 55-3 116-9 164H179c5-68 6-147 6-223v-1261h180c-2 193 4 394-4 580h4zm283 791c221 0 256-197 256-427 0-229-34-425-254-425-236 0-285 195-285 441 0 237 53 411 283 411" id="A"/><path fill="#3a414a" d="M865-914c-3-187-2-380-2-570h180v1261c0 76 1 155 6 223H877c-8-49-9-116-10-174h-5C801-44 708 26 530 26c-135 0-234-46-297-139s-95-232-95-419c0-377 131-566 392-566 176 0 271 63 335 184zm-286-51c-222 0-255 197-255 427 0 229 31 425 253 425 237 0 286-195 286-441 0-238-52-411-284-411" id="B"/><path fill="#3a414a" d="M745-142h380V0H143v-142h422v-798H246v-142h499v940zM545-1292v-192h200v192H545" id="C"/><path fill="#3a414a" d="M1048-32c-2 300-135 456-433 456-222-1-358-88-400-267l184-25c22 99 100 157 222 156 184-2 248-125 248-315 0-64 3-133-2-194C807-100 706-13 524-12c-306 0-381-228-381-537 0-318 85-550 400-550 164 0 271 83 325 202h3c1-60 3-134 12-185h171c-13 339-4 702-6 1050zM585-145c210-8 284-178 284-406 0-192-52-331-177-392-33-16-69-22-104-22-223 2-259 184-259 414 0 229 31 415 256 406" id="D"/><g id="c"><use transform="matrix(0.01627604166666666,0,0,0.01627604166666666,0,0)" xlink:href="#z"/><use transform="matrix(0.01627604166666666,0,0,0.01627604166666666,20.003255208333325,0)" xlink:href="#t"/><use transform="matrix(0.01627604166666666,0,0,0.01627604166666666,40.00651041666665,0)" xlink:href="#A"/><use transform="matrix(0.01627604166666666,0,0,0.01627604166666666,60.00976562499997,0)" xlink:href="#u"/><use transform="matrix(0.01627604166666666,0,0,0.01627604166666666,80.0130208333333,0)" xlink:href="#B"/><use transform="matrix(0.01627604166666666,0,0,0.01627604166666666,100.01627604166663,0)" xlink:href="#B"/><use transform="matrix(0.01627604166666666,0,0,0.01627604166666666,120.01953124999996,0)" xlink:href="#C"/><use transform="matrix(0.01627604166666666,0,0,0.01627604166666666,140.0227864583333,0)" xlink:href="#p"/><use transform="matrix(0.01627604166666666,0,0,0.01627604166666666,160.0260416666666,0)" xlink:href="#D"/></g><path fill="#3a414a" d="M622-1349c296 4 497 117 497 404 0 282-193 424-485 431H353V0H162v-1349h460zm-15 684c195-3 320-88 320-277 0-184-129-255-328-254H353v531h254" id="E"/><path fill="#3a414a" d="M682 16c-209 0-323-80-324-285v-671H190v-142h170l58-282h120v282h432v142H538v652c2 114 60 155 182 155 106 0 209-16 297-34v137C921-4 806 16 682 16" id="F"/><g id="d"><use transform="matrix(0.01627604166666666,0,0,0.01627604166666666,0,0)" xlink:href="#E"/><use transform="matrix(0.01627604166666666,0,0,0.01627604166666666,20.003255208333325,0)" xlink:href="#s"/><use transform="matrix(0.01627604166666666,0,0,0.01627604166666666,40.00651041666665,0)" xlink:href="#q"/><use transform="matrix(0.01627604166666666,0,0,0.01627604166666666,60.00976562499997,0)" xlink:href="#C"/><use transform="matrix(0.01627604166666666,0,0,0.01627604166666666,80.0130208333333,0)" xlink:href="#F"/><use transform="matrix(0.01627604166666666,0,0,0.01627604166666666,100.01627604166663,0)" xlink:href="#C"/><use transform="matrix(0.01627604166666666,0,0,0.01627604166666666,120.01953124999996,0)" xlink:href="#s"/><use transform="matrix(0.01627604166666666,0,0,0.01627604166666666,140.0227864583333,0)" xlink:href="#p"/><use transform="matrix(0.01627604166666666,0,0,0.01627604166666666,160.0260416666666,0)" xlink:href="#o"/><use transform="matrix(0.01627604166666666,0,0,0.01627604166666666,180.02929687499991,0)" xlink:href="#w"/></g><g id="e"><use transform="matrix(0.01627604166666666,0,0,0.01627604166666666,0,0)" xlink:href="#u"/><use transform="matrix(0.01627604166666666,0,0,0.01627604166666666,20.003255208333325,0)" xlink:href="#p"/><use transform="matrix(0.01627604166666666,0,0,0.01627604166666666,40.00651041666665,0)" xlink:href="#x"/><use transform="matrix(0.01627604166666666,0,0,0.01627604166666666,60.00976562499997,0)" xlink:href="#s"/><use transform="matrix(0.01627604166666666,0,0,0.01627604166666666,80.0130208333333,0)" xlink:href="#B"/><use transform="matrix(0.01627604166666666,0,0,0.01627604166666666,100.01627604166663,0)" xlink:href="#C"/><use transform="matrix(0.01627604166666666,0,0,0.01627604166666666,120.01953124999996,0)" xlink:href="#p"/><use transform="matrix(0.01627604166666666,0,0,0.01627604166666666,140.0227864583333,0)" xlink:href="#D"/></g><path fill="#3a414a" d="M237 0v-1349h191v1193h672V0H237" id="G"/><g id="f"><use transform="matrix(0.01627604166666666,0,0,0.01627604166666666,0,0)" xlink:href="#G"/><use transform="matrix(0.01627604166666666,0,0,0.01627604166666666,20.003255208333325,0)" xlink:href="#C"/><use transform="matrix(0.01627604166666666,0,0,0.01627604166666666,40.00651041666665,0)" xlink:href="#p"/><use transform="matrix(0.01627604166666666,0,0,0.01627604166666666,60.00976562499997,0)" xlink:href="#u"/><use transform="matrix(0.01627604166666666,0,0,0.01627604166666666,80.0130208333333,0)" xlink:href="#o"/><use transform="matrix(0.01627604166666666,0,0,0.01627604166666666,100.01627604166663,0)" xlink:href="#n"/></g><path fill="#3a414a" d="M614-1226c-167 1-283 53-283 213 0 183 186 193 334 234 230 63 463 120 463 409 0 286-219 387-518 390C309 23 131-98 79-338l185-37c34 165 149 248 351 246 184-2 324-58 324-238 0-203-207-221-372-266-210-57-422-111-422-377 0-267 201-356 470-360 279-5 430 101 480 324l-188 33c-28-141-121-215-293-213" id="H"/><path fill="#3a414a" d="M932 0L611-444 288 0H94l415-556-397-526h199l300 421 298-421h201L713-558 1133 0H932" id="I"/><g id="g"><use transform="matrix(0.01627604166666666,0,0,0.01627604166666666,0,0)" xlink:href="#H"/><use transform="matrix(0.01627604166666666,0,0,0.01627604166666666,20.003255208333325,0)" xlink:href="#s"/><use transform="matrix(0.01627604166666666,0,0,0.01627604166666666,40.00651041666665,0)" xlink:href="#r"/><use transform="matrix(0.01627604166666666,0,0,0.01627604166666666,60.00976562499997,0)" xlink:href="#F"/><use transform="matrix(0.01627604166666666,0,0,0.01627604166666666,80.0130208333333,0)" xlink:href="#t"/><use transform="matrix(0.01627604166666666,0,0,0.01627604166666666,100.01627604166663,0)" xlink:href="#o"/><use transform="matrix(0.01627604166666666,0,0,0.01627604166666666,120.01953124999996,0)" xlink:href="#I"/></g><path fill="#3a414a" d="M202-1349h823v156H709v1037h316V0H202v-156h316v-1037H202v-156" id="J"/><path fill="#3a414a" d="M698-1104c312 3 392 244 392 558 0 315-82 566-392 566-169 0-277-65-331-184h-5c8 188 2 394 4 589H185V-858c0-76-1-156-6-224h175c6 52 9 120 10 178h4c58-122 150-202 330-200zm-49 991c225 0 255-203 255-433 0-225-32-419-253-419-236 0-285 192-285 441 0 237 53 411 283 411" id="K"/><path fill="#3a414a" d="M528 20c-247 0-343-132-343-381v-721h180v686c-4 177 45 284 224 277 194-8 279-136 279-336v-627h181c3 360-6 732 6 1082H885c-4-54-7-126-8-185h-3C809-64 714 20 528 20" id="L"/><g id="h"><use transform="matrix(0.01627604166666666,0,0,0.01627604166666666,0,0)" xlink:href="#J"/><use transform="matrix(0.01627604166666666,0,0,0.01627604166666666,20.003255208333325,0)" xlink:href="#p"/><use transform="matrix(0.01627604166666666,0,0,0.01627604166666666,40.00651041666665,0)" xlink:href="#K"/><use transform="matrix(0.01627604166666666,0,0,0.01627604166666666,60.00976562499997,0)" xlink:href="#L"/><use transform="matrix(0.01627604166666666,0,0,0.01627604166666666,80.0130208333333,0)" xlink:href="#F"/><use transform="matrix(0.01627604166666666,0,0,0.01627604166666666,100.01627604166663,0)" xlink:href="#q"/></g><path fill="#3a414a" d="M390 276c167 0 266-82 266-251v-965H249v-142h587V28c-4 270-165 397-431 397-107 0-208-16-288-43V242c80 18 173 34 273 34zm246-1568v-192h200v192H636" id="M"/><g id="i"><use transform="matrix(0.01627604166666666,0,0,0.01627604166666666,0,0)" xlink:href="#E"/><use transform="matrix(0.01627604166666666,0,0,0.01627604166666666,20.003255208333325,0)" xlink:href="#n"/><use transform="matrix(0.01627604166666666,0,0,0.01627604166666666,40.00651041666665,0)" xlink:href="#s"/><use transform="matrix(0.01627604166666666,0,0,0.01627604166666666,60.00976562499997,0)" xlink:href="#M"/><use transform="matrix(0.01627604166666666,0,0,0.01627604166666666,80.0130208333333,0)" xlink:href="#u"/><use transform="matrix(0.01627604166666666,0,0,0.01627604166666666,100.01627604166663,0)" xlink:href="#x"/><use transform="matrix(0.01627604166666666,0,0,0.01627604166666666,120.01953124999996,0)" xlink:href="#F"/><use transform="matrix(0.01627604166666666,0,0,0.01627604166666666,140.0227864583333,0)" xlink:href="#C"/><use transform="matrix(0.01627604166666666,0,0,0.01627604166666666,160.0260416666666,0)" xlink:href="#s"/><use transform="matrix(0.01627604166666666,0,0,0.01627604166666666,180.02929687499991,0)" xlink:href="#p"/></g><path fill="#3a414a" d="M650-1214c-281 0-336 244-336 533 0 295 60 546 347 546 188 0 263-142 322-282l159 65C1058-155 935 20 659 20c-401 0-546-295-546-701 0-407 135-689 536-689 264 0 391 146 466 335l-168 65c-47-129-127-244-297-244" id="N"/><g id="j"><use transform="matrix(0.01627604166666666,0,0,0.01627604166666666,0,0)" xlink:href="#N"/><use transform="matrix(0.01627604166666666,0,0,0.01627604166666666,20.003255208333325,0)" xlink:href="#s"/><use transform="matrix(0.01627604166666666,0,0,0.01627604166666666,40.00651041666665,0)" xlink:href="#p"/><use transform="matrix(0.01627604166666666,0,0,0.01627604166666666,60.00976562499997,0)" xlink:href="#B"/><use transform="matrix(0.01627604166666666,0,0,0.01627604166666666,80.0130208333333,0)" xlink:href="#C"/><use transform="matrix(0.01627604166666666,0,0,0.01627604166666666,100.01627604166663,0)" xlink:href="#F"/><use transform="matrix(0.01627604166666666,0,0,0.01627604166666666,120.01953124999996,0)" xlink:href="#C"/><use transform="matrix(0.01627604166666666,0,0,0.01627604166666666,140.0227864583333,0)" xlink:href="#s"/><use transform="matrix(0.01627604166666666,0,0,0.01627604166666666,160.0260416666666,0)" xlink:href="#p"/><use transform="matrix(0.01627604166666666,0,0,0.01627604166666666,180.02929687499991,0)" xlink:href="#o"/><use transform="matrix(0.01627604166666666,0,0,0.01627604166666666,200.03255208333323,0)" xlink:href="#w"/></g><path fill="#3a414a" d="M168 279c222 39 310-114 368-290L66-1082h192c120 299 249 590 362 896 115-301 235-597 351-896h190L705 0c-65 164-130 320-275 396-67 36-177 35-262 18V279" id="O"/><g id="k"><use transform="matrix(0.01627604166666666,0,0,0.01627604166666666,0,0)" xlink:href="#B"/><use transform="matrix(0.01627604166666666,0,0,0.01627604166666666,20.003255208333325,0)" xlink:href="#u"/><use transform="matrix(0.01627604166666666,0,0,0.01627604166666666,40.00651041666665,0)" xlink:href="#p"/><use transform="matrix(0.01627604166666666,0,0,0.01627604166666666,60.00976562499997,0)" xlink:href="#q"/><use transform="matrix(0.01627604166666666,0,0,0.01627604166666666,80.0130208333333,0)" xlink:href="#C"/><use transform="matrix(0.01627604166666666,0,0,0.01627604166666666,100.01627604166663,0)" xlink:href="#F"/><use transform="matrix(0.01627604166666666,0,0,0.01627604166666666,120.01953124999996,0)" xlink:href="#O"/></g><g id="l"><use transform="matrix(0.01627604166666666,0,0,0.01627604166666666,0,0)" xlink:href="#t"/><use transform="matrix(0.01627604166666666,0,0,0.01627604166666666,20.003255208333325,0)" xlink:href="#s"/><use transform="matrix(0.01627604166666666,0,0,0.01627604166666666,40.00651041666665,0)" xlink:href="#B"/><use transform="matrix(0.01627604166666666,0,0,0.01627604166666666,60.00976562499997,0)" xlink:href="#u"/><use transform="matrix(0.01627604166666666,0,0,0.01627604166666666,80.0130208333333,0)" xlink:href="#w"/></g></defs></g></svg>